<svg xmlns="http://www.w3.org/2000/svg" xml:space="preserve" width="975.408" height="794.676" viewBox="0 0 258.077 210.258">
<path fill="none" d="M11.265 58.522V34.618S10.44 23.354 21.98 23.354s95.063.274 95.063.274l9.891-15.66 127.21.274s9.34 2.198 9.615 10.441c.275 8.242.275 182.434.275 182.434s-1.099 11.814-10.715 11.814-229.416-.275-229.416-.275-12.913 0-12.638-13.463c.274-13.462 0-140.671 0-140.671z" style="fill:#000;fill-opacity:0;stroke:#536db5;stroke-width:5;stroke-dasharray:none;stroke-opacity:.8" transform="translate(-8.603 -5.319)"/>
<path fill="none" d="M11.265 58.522V34.618S10.44 23.354 21.98 23.354s95.063.274 95.063.274l9.891-15.66 127.21.274s9.34 2.198 9.615 10.441c.275 8.242.275 182.434.275 182.434s-1.099 11.814-10.715 11.814-229.416-.275-229.416-.275-12.913 0-12.638-13.463c.274-13.462 0-140.671 0-140.671z" style="fill:#000;fill-opacity:0;stroke:#000;stroke-width:3;stroke-dasharray:none;stroke-opacity:.5" transform="translate(-8.603 -5.319)"/>
</svg>